<?xml version="1.0" encoding="utf-8"?>
<svg version="1.1" xmlns="http://www.w3.org/2000/svg" xmlns:xlink="http://www.w3.org/1999/xlink" x="0px" y="0px"
	 width="18px" height="9px" viewBox="0 0 18 9" >
   <style>
   .st0{fill:#FFF;}
   </style>
<path class="st0" d="M3.5,8.6c0.1,0.1,0.3,0.2,0.4,0.3C4,9,4.1,9,4.2,9c0.1,0,0.2,0,0.4-0.1c0.1-0.1,0.2-0.1,0.3-0.2
	C5,8.6,5.1,8.5,5.1,8.4c0.1-0.1,0.1-0.2,0.1-0.4c0-0.2,0-0.3-0.1-0.4c0-0.1-0.2-0.3-0.3-0.4L3.3,5.6h13.6c0.4,0,0.6-0.1,0.8-0.3
	C17.9,5.1,18,4.8,18,4.5s-0.1-0.6-0.3-0.8c-0.2-0.2-0.5-0.3-0.8-0.3H3.3l1.5-1.7C5,1.6,5.1,1.5,5.1,1.4c0.1-0.1,0.1-0.3,0.1-0.4
	c0-0.1,0-0.3-0.1-0.4c0-0.1-0.1-0.2-0.2-0.3C4.8,0.2,4.7,0.1,4.6,0.1C4.5,0,4.3,0,4.2,0C4.1,0,4,0,3.8,0.1C3.7,0.2,3.6,0.2,3.5,0.4
	l-3,3.3C0.3,3.8,0.2,4,0.1,4.1C0,4.2,0,4.3,0,4.5s0,0.3,0.1,0.4c0.1,0.1,0.2,0.3,0.3,0.4L3.5,8.6z"/>
</svg>
