<?xml version="1.0" encoding="utf-8"?>
<!-- Generator: Adobe Illustrator 23.0.2, SVG Export Plug-In . SVG Version: 6.00 Build 0)  -->
<svg version="1.1" id="圖層_1" xmlns="http://www.w3.org/2000/svg" xmlns:xlink="http://www.w3.org/1999/xlink" x="0px" y="0px"
	 viewBox="0 0 25 25" style="enable-background:new 0 0 25 25;" xml:space="preserve">
<style type="text/css">
	.st0{fill-rule:evenodd;clip-rule:evenodd;}
</style>
<path class="st0" d="M21.3,3.7C19,1.3,15.8,0,12.5,0S6,1.3,3.7,3.7C1.3,6,0,9.2,0,12.5s1.3,6.5,3.7,8.8C6,23.7,9.2,25,12.5,25
	s6.5-1.3,8.8-3.7c2.4-2.4,3.7-5.5,3.7-8.8S23.7,6,21.3,3.7z M4.9,4.9c1-1,2.1-1.8,3.4-2.3C8,3,7.7,3.4,7.5,3.9
	C7.1,4.5,6.8,5.3,6.6,6C5.8,5.8,5.1,5.6,4.4,5.4C4.5,5.2,4.7,5,4.9,4.9z M3.3,6.8c0.9,0.3,1.9,0.6,2.8,0.9c-0.2,1-0.4,2.1-0.5,3.3
	H1.8C2,9.5,2.5,8.1,3.3,6.8z M1.7,12.7h3.9c0,1.1,0.1,2.3,0.3,3.3c-1.1,0.2-2.2,0.5-3.3,0.8C2,15.5,1.7,14.1,1.7,12.7z M4.9,20.1
	c-0.6-0.6-1.1-1.2-1.5-1.8c0.9-0.3,1.9-0.5,2.8-0.6c0.3,1.3,0.7,2.5,1.3,3.5C7.7,21.6,8,22,8.3,22.4C7,21.9,5.8,21.1,4.9,20.1z
	 M11.7,23.1c-1-0.4-1.9-1.3-2.7-2.8c-0.4-0.9-0.8-1.9-1.1-3c1.3-0.2,2.5-0.3,3.8-0.3V23.1z M11.7,15.3c-1.4,0-2.7,0.2-4.1,0.4
	c-0.2-1-0.2-2-0.2-3.1h4.3V15.3z M11.7,10.9H7.4c0.1-1,0.2-2,0.4-2.9c1.3,0.2,2.6,0.4,3.9,0.4V10.9z M11.7,6.8
	c-1.1,0-2.3-0.2-3.4-0.4C8.5,5.8,8.7,5.2,9,4.7c0.8-1.5,1.7-2.4,2.7-2.8V6.8z M21.7,6.9c0.8,1.3,1.3,2.6,1.5,4.1h-3.8
	c-0.1-1.1-0.2-2.2-0.5-3.2C19.8,7.5,20.8,7.2,21.7,6.9z M20.1,4.9c0.2,0.2,0.4,0.4,0.5,0.5c-0.7,0.3-1.5,0.5-2.2,0.7
	c-0.3-0.8-0.6-1.5-0.9-2.2C17.3,3.4,17,3,16.7,2.6C18,3.1,19.2,3.9,20.1,4.9z M13.3,1.9c1,0.4,1.9,1.3,2.7,2.8
	c0.3,0.5,0.5,1.1,0.8,1.8c-1.1,0.2-2.3,0.3-3.4,0.4V1.9z M13.3,8.5c1.3,0,2.6-0.2,3.9-0.4c0.2,0.9,0.3,1.9,0.4,2.9h-4.3V8.5z
	 M13.3,12.7h4.3c0,1-0.1,2-0.2,3c-1.4-0.2-2.7-0.3-4.1-0.3V12.7z M13.3,23.1V17c1.3,0,2.5,0.1,3.8,0.3c-0.3,1.1-0.7,2.2-1.1,3.1
	C15.3,21.8,14.3,22.8,13.3,23.1z M20.1,20.1c-1,1-2.1,1.8-3.4,2.3c0.3-0.4,0.5-0.8,0.8-1.3c0.5-1,1-2.3,1.3-3.6
	c1,0.2,1.9,0.4,2.8,0.6C21.2,18.9,20.7,19.5,20.1,20.1z M19.2,15.9c0.2-1,0.2-2.1,0.3-3.2h3.9c0,1.4-0.3,2.7-0.8,4
	C21.4,16.3,20.3,16.1,19.2,15.9z"/>
</svg>
