<?xml version="1.0" encoding="utf-8"?>
<!-- Generator: Adobe Illustrator 21.0.0, SVG Export Plug-In . SVG Version: 6.00 Build 0)  -->
<svg version="1.1" id="圖層_1" xmlns="http://www.w3.org/2000/svg" xmlns:xlink="http://www.w3.org/1999/xlink" x="0px" y="0px"
	 viewBox="0 0 20 22" style="enable-background:new 0 0 20 22;" xml:space="preserve">
<path d="M14.4,17.8H5.6v0.8h8.8V17.8z M14.4,16.2H5.6V17h8.8V16.2z M16.8,6.6h-8V5.8h8V6.6z M16.4,8.2h-0.8c-0.2,0-0.4-0.2-0.4-0.4
	s0.2-0.4,0.4-0.4h0.8c0.2,0,0.4,0.2,0.4,0.4S16.6,8.2,16.4,8.2z M16.4,9.8h-0.8c-0.2,0-0.4-0.2-0.4-0.4c0-0.2,0.2-0.4,0.4-0.4h0.8
	c0.2,0,0.4,0.2,0.4,0.4C16.8,9.6,16.6,9.8,16.4,9.8z M16.4,11.4h-0.8c-0.2,0-0.4-0.2-0.4-0.4s0.2-0.4,0.4-0.4h0.8
	c0.2,0,0.4,0.2,0.4,0.4S16.6,11.4,16.4,11.4z M12.4,10.6h0.8c0.2,0,0.4,0.2,0.4,0.4s-0.2,0.4-0.4,0.4h-0.8c-0.2,0-0.4-0.2-0.4-0.4
	S12.2,10.6,12.4,10.6z M12,7.8c0-0.2,0.2-0.4,0.4-0.4h0.8c0.2,0,0.4,0.2,0.4,0.4s-0.2,0.4-0.4,0.4h-0.8C12.2,8.2,12,8,12,7.8z
	 M12.4,9h0.8c0.2,0,0.4,0.2,0.4,0.4c0,0.2-0.2,0.4-0.4,0.4h-0.8c-0.2,0-0.4-0.2-0.4-0.4C12,9.2,12.2,9,12.4,9z M16,20.2H4v-5.6h12
	V20.2z M3.2,11V2.2c0-0.2,0.2-0.4,0.4-0.4H6c0.2,0,0.4,0.2,0.4,0.4V11c0,0.2-0.2,0.4-0.4,0.4H3.6C3.4,11.4,3.2,11.2,3.2,11z
	 M9.2,10.6H10c0.2,0,0.4,0.2,0.4,0.4s-0.2,0.4-0.4,0.4H9.2c-0.2,0-0.4-0.2-0.4-0.4S9,10.6,9.2,10.6z M8.8,7.8c0-0.2,0.2-0.4,0.4-0.4
	H10c0.2,0,0.4,0.2,0.4,0.4S10.2,8.2,10,8.2H9.2C9,8.2,8.8,8,8.8,7.8z M9.2,9H10c0.2,0,0.4,0.2,0.4,0.4c0,0.2-0.2,0.4-0.4,0.4H9.2
	C9,9.8,8.8,9.6,8.8,9.4C8.8,9.2,9,9,9.2,9z M18.8,3.4H7.2V2.2C7.2,1.5,6.7,1,6,1H3.6C2.9,1,2.4,1.5,2.4,2.2v1.2H1.2
	C0.5,3.4,0,3.9,0,4.6v11.2C0,16.5,0.5,17,1.2,17h2v4h13.6v-4h2c0.7,0,1.2-0.5,1.2-1.2V4.6C20,3.9,19.5,3.4,18.8,3.4z"/>
</svg>
