<?xml version="1.0" encoding="utf-8"?>
<!-- Generator: Adobe Illustrator 23.0.2, SVG Export Plug-In . SVG Version: 6.00 Build 0)  -->
<svg version="1.1" id="圖層_1" xmlns="http://www.w3.org/2000/svg" xmlns:xlink="http://www.w3.org/1999/xlink" x="0px" y="0px"
	 viewBox="0 0 23.2 22.8" style="enable-background:new 0 0 23.2 22.8;" xml:space="preserve">
<path d="M22.7,20.1L17.9,16c1.3-1.7,2-3.8,2-6c0-5.5-4.5-10-10-10S0,4.5,0,10s4.5,10,10,10c2.1,0,4.1-0.7,5.8-1.9l5,4.3
	c0.3,0.2,0.6,0.4,1,0.4c0.4,0,0.8-0.2,1.1-0.5C23.4,21.6,23.3,20.7,22.7,20.1z M3,10c0-3.8,3.1-7,7-7s7,3.1,7,7s-3.1,7-7,7
	S3,13.8,3,10z"/>
</svg>
