<?xml version="1.0" encoding="utf-8"?>
<!-- Generator: Adobe Illustrator 21.0.0, SVG Export Plug-In . SVG Version: 6.00 Build 0)  -->
<svg version="1.1" id="圖層_1" xmlns="http://www.w3.org/2000/svg" xmlns:xlink="http://www.w3.org/1999/xlink" x="0px" y="0px"
	 viewBox="0 0 29.8 30" style="enable-background:new 0 0 29.8 30;" xml:space="preserve">
<g>
	<path class="st0" d="M14.5,8.5c-1.6,0-3,0.6-4.1,1.6c-1.1,1.1-1.7,2.5-1.7,4c0,3.2,2.7,5.9,6,5.9c0,0,0,0,0.1,0
		c1.6,0,3-0.6,4.1-1.7c1.1-1.1,1.7-2.5,1.7-4c0-3.2-2.6-5.8-5.9-5.9C14.6,8.5,14.5,8.5,14.5,8.5z"/>
	<path class="st0" d="M21,21.2c-1.7,1.6-3.9,2.4-6.3,2.4c0,0,0,0,0,0c-5.3,0-9.6-4.3-9.6-9.5c0-2.5,1-4.8,2.8-6.5
		c1.8-1.8,4.3-2.7,6.9-2.6c5.2,0.2,9.3,4.4,9.3,9.5c0,1.4-0.3,2.7-0.9,4l4.8,3.9c1.2-2.2,1.9-4.7,1.9-7.3c0-8.2-6.6-14.9-14.7-15
		c0,0,0,0,0,0h-0.2c0,0,0,0,0,0C6.6,0.1,0,6.8,0,15s6.6,14.9,14.7,15c0,0,0,0,0,0H15c0,0,0,0,0,0c4.2-0.1,8-1.9,10.7-4.8L21,21.2z"
		/>
</g>
</svg>
