<svg id="圖層_1" xmlns="http://www.w3.org/2000/svg" xmlns:xlink="http://www.w3.org/1999/xlink" viewBox="0 0 28 24" style="fill:#000"><path d="M26.66 8.65h-.61l-3.07-7.8c-.27-.69-1.05-1.03-1.74-.75-.69.27-1.02 1.06-.75 1.76l2.68 6.79H5.3l2.84-6.77C8.43 1.2 8.12.4 7.43.11 6.75-.18 5.97.14 5.68.82L2.39 8.65H1.34C.6 8.65.0 9.25.0 10s.6 1.35 1.34 1.35h25.32c.74.0 1.34-.6 1.34-1.35S27.4 8.65 26.66 8.65z"/><path d="M8.72 12.64 9.25 17.53h8.8L18.53 12.64z"/><path d="M19.4 19.1 18.93 24h4.45c.19.0.37-.13.4-.29l.76-4.61H19.4z"/><path d="M19.62 17.53h5.28l.77-4.6c.02-.16-.12-.29-.31-.29h-5.27L19.62 17.53z"/><path d="M17.36 24 17.84 19.1H9.49L10.03 24z"/><path d="M3.1 17.53h4.82l-.53-4.89H2.64c-.19.0-.33.13-.31.29L3.1 17.53z"/><path d="M8.16 19.1h-4.7l.76 4.61C4.25 23.87 4.43 24 4.62 24H8.7L8.16 19.1z"/></svg>