<?xml version="1.0" encoding="utf-8"?>
<!-- Generator: Adobe Illustrator 21.0.0, SVG Export Plug-In . SVG Version: 6.00 Build 0)  -->
<svg version="1.1" id="圖層_1" xmlns="http://www.w3.org/2000/svg" xmlns:xlink="http://www.w3.org/1999/xlink" x="0px" y="0px"
	 viewBox="0 0 26 16" style="enable-background:new 0 0 26 16;" xml:space="preserve">
<path d="M23,0.9c-0.5,0-0.9,0.4-0.9,0.9s0.4,0.9,0.9,0.9c0.5,0,0.9-0.4,0.9-0.9S23.5,0.9,23,0.9z M23,3.5c-1,0-1.8-0.8-1.8-1.7
	C21.2,0.8,22,0,23,0s1.8,0.8,1.8,1.7C24.8,2.7,24,3.5,23,3.5z"/>
<path d="M9.3,10.6v1.5c-0.4,0-0.8-0.1-1.3-0.1L7.4,12l-0.6-0.1c-0.4-0.1-0.8-0.1-1.2-0.2c-0.4-0.1-0.8-0.2-1.2-0.3
	c-0.4-0.1-0.7-0.2-1.1-0.3c-0.3-0.1-0.7-0.3-1-0.4c-0.3-0.2-0.6-0.3-0.8-0.5C1.1,9.7,1,9.3,1.3,8.8c0.2-0.2,0.4-0.5,0.6-0.7
	c0.3-0.2,0.5-0.4,0.8-0.6C3,7.4,3.2,7.3,3.5,7.2V6.5C3.1,6.7,2.8,6.8,2.4,6.9c-0.3,0.1-0.7,0.3-1,0.5C1.1,7.6,0.8,7.9,0.5,8.2
	C0.3,8.4,0.2,8.6,0.1,8.8l0,0.2l0,0.1l0,0.1l0,0.2v0v0v0v0.1c0,0.3,0.1,0.5,0.2,0.7c0.1,0.2,0.2,0.4,0.4,0.6c0.3,0.4,0.6,0.6,1,0.9
	c0.4,0.3,0.7,0.5,1.1,0.6c0.8,0.4,1.6,0.7,2.4,0.9c0.4,0.1,0.8,0.2,1.3,0.3l0.6,0.1L7.7,14c0.5,0.1,1.1,0.2,1.6,0.2V16l2.8-1.6
	l2.1-1.1l-1.8-1L9.3,10.6z"/>
<path d="M26,9.5L26,9.5l0-0.3c0-0.1,0-0.3-0.1-0.4c-0.1-0.2-0.2-0.4-0.4-0.6c-0.3-0.3-0.6-0.6-0.9-0.8c-0.3-0.2-0.7-0.4-1-0.5
	c-0.7-0.3-1.3-0.5-2-0.6l-0.1,0v0.5c0.3,0.1,0.6,0.2,0.8,0.3c0.3,0.1,0.6,0.3,0.9,0.4c0.3,0.2,0.6,0.3,0.8,0.6
	c0.3,0.2,0.5,0.4,0.6,0.7c0.1,0.1,0.1,0.2,0.2,0.4c0,0.1,0,0.1,0,0.2l0,0.1v0v0v0l0,0.1l0,0l0,0l0,0.1c0,0,0,0.1-0.1,0.2
	c-0.1,0.1-0.2,0.2-0.3,0.3c-0.2,0.2-0.5,0.4-0.8,0.6s-0.6,0.3-1,0.4c-0.3,0.1-0.7,0.2-1.1,0.3c-0.4,0.1-0.8,0.2-1.1,0.3
	c-0.4,0.1-0.8,0.1-1.2,0.2C18.8,11.9,18.4,12,18,12c-1,0.1-2,0.2-3.1,0.2v2.1c1.1-0.1,2.3-0.2,3.4-0.4c0.4-0.1,0.9-0.2,1.3-0.3
	c0.4-0.1,0.9-0.2,1.3-0.3c0.4-0.1,0.8-0.3,1.2-0.4c0.4-0.1,0.8-0.3,1.2-0.5c0.4-0.2,0.8-0.4,1.1-0.7s0.7-0.5,1-0.9
	c0.1-0.2,0.3-0.4,0.4-0.6c0.1-0.1,0.1-0.2,0.1-0.4l0-0.2l0-0.1L26,9.5L26,9.5z"/>
<path d="M6.8,9.4c1.6,0,2.4-0.7,2.4-1.9V6.9C9.1,6.4,9,6,8.7,5.7L8.6,5.6C8.4,5.5,8.2,5.4,8,5.4v0c0.8-0.2,1.1-0.7,1.1-1.5V3.6
	c0-1.2-0.8-1.9-2.4-1.9S4.4,2.4,4.4,3.6V4h1.5V3.5c0-0.5,0.3-0.7,0.8-0.7c0.5,0,0.8,0.2,0.8,0.9v0.4c0,0.6-0.4,0.8-0.9,0.8H6v1.1
	h0.1h0.4c0.2,0,0.4,0,0.6,0.1c0.3,0.1,0.5,0.4,0.5,0.9v0.6c0,0.7-0.3,0.8-0.8,0.8c-0.5,0-0.8-0.2-0.8-0.7V6.9H4.4v0.6
	C4.4,8.7,5.2,9.4,6.8,9.4z"/>
<path d="M17.4,3.5c0-0.5,0.3-0.7,0.8-0.7s0.8,0.2,0.8,0.7v4.1c0,0.5-0.3,0.7-0.8,0.7s-0.8-0.2-0.8-0.7V3.5z M18.2,9.4
	c1.6,0,2.4-0.7,2.4-1.9V3.6c0-1.2-0.9-1.9-2.4-1.9c-1.6,0-2.4,0.7-2.4,1.9v3.9C15.8,8.7,16.7,9.4,18.2,9.4z"/>
<path d="M13.4,7.6c0,0.5-0.3,0.7-0.8,0.7c-0.5,0-0.8-0.2-0.8-0.7V6.2c0-0.5,0.3-0.7,0.8-0.7c0.5,0,0.8,0.2,0.8,0.7V7.6z M14.9,6.2
	c0-0.3,0-0.5-0.1-0.7v0c-0.2-0.7-0.8-1-1.7-1c-0.7,0-1.2,0.2-1.5,0.7h0V3.7c0-0.7,0.3-0.9,0.9-0.9c0.5,0,0.8,0.2,0.8,0.7v0.3h1.5
	V3.6c0-1.2-0.8-1.9-2.4-1.9c-1.6,0-2.4,0.7-2.4,2v3.8c0,1.2,0.9,1.9,2.4,1.9c1.6,0,2.4-0.7,2.4-1.9V6.2z"/>
</svg>
