<?xml version="1.0" encoding="utf-8"?>
<!-- Generator: Adobe Illustrator 21.0.0, SVG Export Plug-In . SVG Version: 6.00 Build 0)  -->
<svg version="1.1" id="圖層_2" xmlns="http://www.w3.org/2000/svg" xmlns:xlink="http://www.w3.org/1999/xlink" x="0px" y="0px"
	 viewBox="0 0 352.5 319.5" style="enable-background:new 0 0 352.5 319.5;" xml:space="preserve">
<g>
	<path d="M16,64h224c8.8,0,16-7.2,16-16s-7.2-16-16-16H16C7.2,32,0,39.2,0,48S7.2,64,16,64z"/>
	<path d="M16,176h48c0.3,17.4,14.5,31.5,32,31.5c17.7,0,32-14.3,32-32V144c0-17.7-14.3-32-32-32s-32,14.3-32,32H16
		c-8.8,0-16,7.2-16,16C0,168.8,7.2,176,16,176z"/>
	<path d="M336,256h-48c0-17.7-14.3-32-32-32s-32,14.3-32,32v31.5c0,17.7,14.3,32,32,32c17.5,0,31.7-14.1,32-31.5h48
		c8.8,0,16-7.2,16-16S344.8,256,336,256z"/>
	<path d="M176,256H16c-8.8,0-16,7.2-16,16s7.2,16,16,16h160c8.8,0,16-7.2,16-16S184.8,256,176,256z"/>
	<path d="M336,144.1H176c-8.8,0-16,7.2-16,16s7.2,16,16,16h160c8.8,0,16-7.2,16-16S344.8,144.1,336,144.1z"/>
	<path d="M320.5,0c-17.7,0-32,14.3-32,32v31.5c0,17.7,14.3,32,32,32s32-14.3,32-32V32C352.5,14.3,338.2,0,320.5,0z"/>
</g>
</svg>
