<?xml version="1.0" encoding="utf-8"?>
<!-- Generator: Adobe Illustrator 21.0.0, SVG Export Plug-In . SVG Version: 6.00 Build 0)  -->
<svg version="1.1" id="圖層_1" xmlns="http://www.w3.org/2000/svg" xmlns:xlink="http://www.w3.org/1999/xlink" x="0px" y="0px"
	 viewBox="0 0 20 22" style="enable-background:new 0 0 20 22;" xml:space="preserve">
<path d="M15.5,21c1.9,0,4.5-2.4,4.5-3v-1.2c0-0.3-0.2-0.5-0.5-0.6l-4.7-1.5c-0.2-0.1-0.5,0-0.7,0.2l-1.8,1.8
	c-0.2,0.2-0.5,0.3-0.8,0.1c-0.7-0.4-2.3-1.4-4.1-3.2c-1.8-1.8-2.8-3.4-3.2-4.1C4.1,9.1,4.2,8.8,4.4,8.6l1.8-1.8
	c0.2-0.2,0.2-0.4,0.2-0.7L4.8,1.5C4.7,1.2,4.5,1,4.2,1H3C2.4,1,0,3.6,0,5.5c0,1.1,0.4,5.2,5.4,10.2C10.3,20.6,14.4,21,15.5,21z"/>
</svg>
