<?xml version="1.0" encoding="utf-8"?>
<!-- Generator: Adobe Illustrator 23.0.2, SVG Export Plug-In . SVG Version: 6.00 Build 0)  -->
<svg version="1.1" id="圖層_1" xmlns="http://www.w3.org/2000/svg" xmlns:xlink="http://www.w3.org/1999/xlink" x="0px" y="0px"
	 viewBox="0 0 213.4 203.3" style="enable-background:new 0 0 213.4 203.3;" xml:space="preserve">

<g id="Layer_2">
	<g id="LINE_LOGO">
		<path class="st0" d="M106.7,0C47.9,0,0,38.8,0,86.6c0,42.8,38,78.7,89.2,85.4c3.5,0.8,8.2,2.3,9.4,5.3c1.1,2.7,0.7,6.9,0.3,9.7
			c0,0-1.3,7.5-1.5,9.1c-0.5,2.7-2.1,10.5,9.2,5.8c11.4-4.8,61.4-36.2,83.8-61.9c15.5-17,22.9-34.2,22.9-53.3
			C213.4,38.8,165.5,0,106.7,0z M69,112.2c0,1.1-0.9,2-2,2l0,0H37c-1.1,0-2-0.9-2-2V65.6c0-1.1,0.9-2,2-2h7.6c1.1,0,2,0.9,2,2v37H67
			c1.1,0,2,0.9,2,2V112.2z M87.1,112.1c0,1.1-0.9,2-2,2h-7.6c-1.1,0-2-0.9-2-2V65.6c0-1.1,0.9-2,2-2H85c1.1,0,2,0.9,2,2V112.1z
			 M138.6,112c0,1.1-0.9,2-2,2H129c-0.2,0-0.4,0-0.5-0.1h-0.1h-0.1h-0.1l-0.1,0H128l-0.1-0.1c-0.2-0.1-0.4-0.3-0.5-0.5l-21.3-28.8
			v27.9c0,1.1-0.9,2-2,2h-7.6c-1.1,0-2-0.9-2-2V65.8c0-1.1,0.9-2,2-2h7.7h0.1h0.1h0.1h0.1h0.1h0.1h0.1h0.1l0.1,0.1h0.1l0.1,0.1h0.1
			l0.1,0.1l0.1,0.1c0.1,0.1,0.1,0.1,0.2,0.2L127,93.2V65.5c0-1.1,0.9-2,2-2h7.6c0,0,0,0,0,0c1.1,0,2,0.9,2,2V112z M179.9,73.2
			c0,1.1-0.9,2-2,2h-20.4V83h20.4c1.1,0,2,0.9,2,2v7.6c0,1.1-0.9,2-2,2h-20.4v7.9h20.4c1.1,0,2,0.9,2,2v7.6c0,1.1-0.8,2-1.9,2.1
			c0,0,0,0-0.1,0h-30c-1.1,0-2-0.9-2-2V65.6c0-1.1,0.9-2,2-2h30c1.1,0,2,0.9,2,2V73.2z"/>
	</g>
</g>
</svg>
