<?xml version="1.0" encoding="utf-8"?>
<!-- Generator: Adobe Illustrator 21.0.0, SVG Export Plug-In . SVG Version: 6.00 Build 0)  -->
<svg version="1.1" id="圖層_1" xmlns="http://www.w3.org/2000/svg" xmlns:xlink="http://www.w3.org/1999/xlink" x="0px" y="0px"
	 viewBox="0 0 15 15" style="enable-background:new 0 0 15 15;" xml:space="preserve">
<path d="M7.1,11.1c0.1,0.1,0.2,0.2,0.4,0.2s0.3-0.1,0.4-0.2l3.5-3.8c0.1-0.1,0.2-0.3,0.1-0.5c-0.1-0.2-0.3-0.3-0.5-0.3H9V0.5
	C9,0.2,8.8,0,8.5,0h-2C6.2,0,6,0.2,6,0.5v6.1H4c-0.2,0-0.4,0.1-0.5,0.3C3.5,7,3.5,7.2,3.6,7.3L7.1,11.1z M13,10.3v2.8H2v-2.8H0v3.8
	C0,14.6,0.4,15,1,15h13c0.6,0,1-0.4,1-0.9v-3.8H13z"/>
</svg>
