<?xml version="1.0" encoding="utf-8"?>

<svg version="1.1" xmlns="http://www.w3.org/2000/svg" xmlns:xlink="http://www.w3.org/1999/xlink" x="0px" y="0px"
	 viewBox="0 0 18.97 26.02" xml:space="preserve">

<path class="st0" d="M14.16,17.19c-0.14-0.04-0.47-0.24-0.88-0.53c0.15-0.02,0.25-0.02,0.32-0.02c0.77,0,0.99,0.08,1.04,0.2
	C14.65,17.08,14.65,17.18,14.16,17.19z M8.77,16.55l0.09-0.29l0.51-1.64c0.22,0.25,0.45,0.5,0.7,0.76c0.1,0.11,0.35,0.34,0.68,0.63
	C10.1,16.15,9.42,16.33,8.77,16.55z M8.31,10.72C8.3,9.59,8.64,9.59,8.82,9.59c0.37,0,0.52,0,0.53,1.07c0,0.23-0.14,0.8-0.4,1.69
	C8.54,11.7,8.32,11.14,8.31,10.72z M4.73,20.48c-0.3,0-0.51-0.15-0.53-0.18c0-0.39,1.1-0.94,2.17-1.47l0.21-0.11
	C5.8,19.92,5.02,20.48,4.73,20.48z M13.58,15.54c-0.21,0-0.78,0.07-1.51,0.2c-0.49-0.4-0.96-0.81-1.27-1.13
	c-0.4-0.41-0.76-0.81-1.07-1.19c0.46-1.54,0.67-2.33,0.66-2.76c-0.02-1.78-0.65-2.15-1.58-2.15c-0.71,0-1.55,0.38-1.54,2.21
	c0.01,0.8,0.44,1.78,1.3,2.92l-0.71,2.28c-0.12,0.41-0.26,0.79-0.41,1.14l-0.36,0.18c-0.41,0.22-0.81,0.41-1.17,0.6
	c-1.67,0.82-2.77,1.37-2.77,2.46c0,0.79,0.82,1.28,1.58,1.28c0.98,0,2.44-1.37,3.5-3.67c1.11-0.46,2.49-0.8,3.58-1.01
	c0.89,0.7,1.86,1.38,2.33,1.38c1.3,0,1.56-0.79,1.55-1.44C15.67,15.54,14.26,15.54,13.58,15.54z M16.35,24.35H2.64
	c-0.58,0-1.06-0.5-1.06-1.11L1.56,2.67c0-0.59,0.46-1.06,1.02-1.06h9.23l0.04,2.63c0.02,1.17,0.96,2.68,2.1,2.68h3.1l0.34,16.32
	C17.4,23.85,16.94,24.35,16.35,24.35z M13.38,1.8l3.45,3.5h-2.37c-0.57,0-1.04-0.48-1.05-1.06L13.38,1.8z M18.45,4.9l-4.72-4.75
	C13.63,0.06,13.5,0,13.37,0H2.05C0.92,0,0,0.95,0,2.11v21.68c0,1.23,0.95,2.23,2.11,2.23H16.9c1.17,0,2.09-1,2.07-2.23L18.6,5.28
	C18.6,5.14,18.54,5,18.45,4.9z"/>
</svg>
