<?xml version="1.0" encoding="utf-8"?>
<!-- Generator: Adobe Illustrator 21.0.0, SVG Export Plug-In . SVG Version: 6.00 Build 0)  -->
<svg version="1.1" id="圖層_1" xmlns="http://www.w3.org/2000/svg" xmlns:xlink="http://www.w3.org/1999/xlink" x="0px" y="0px"
	 viewBox="0 0 18 15" style="enable-background:new 0 0 18 15;" xml:space="preserve">
<path d="M17.6,3.2h-13L4,0.5L1,0.1C0.8-0.1,0.5,0,0.3,0.2L0.1,0.5C-0.1,0.8,0,1.1,0.2,1.3l2.6,0.1l2,9.8c0.1,0.3,0.3,0.5,0.6,0.5
	h9.8c0.3,0,0.6-0.2,0.6-0.5l0.1-0.4c0.1-0.3-0.1-0.5-0.3-0.5H6L5.6,8.3h10.5c0.3,0,0.5-0.2,0.6-0.5l0.1-0.4c0.1-0.3-0.1-0.5-0.3-0.5
	H5.4L4.9,4.7h12.3c0.3,0,0.5-0.2,0.6-0.5L18,3.7C18.1,3.4,17.9,3.2,17.6,3.2z M8.3,13.5C8.3,12.7,7.7,12,7,12
	c-0.7,0-1.3,0.7-1.3,1.5C5.6,14.3,6.2,15,7,15C7.7,15,8.3,14.3,8.3,13.5z M15.1,13.5c0-0.8-0.6-1.5-1.3-1.5c-0.8,0-1.3,0.7-1.3,1.5
	c0,0.8,0.6,1.5,1.3,1.5C14.5,15,15.1,14.3,15.1,13.5z"/>
</svg>
