<?xml version="1.0" encoding="utf-8"?>
<!-- Generator: Adobe Illustrator 21.0.0, SVG Export Plug-In . SVG Version: 6.00 Build 0)  -->
<svg version="1.1" id="圖層_1" xmlns="http://www.w3.org/2000/svg" xmlns:xlink="http://www.w3.org/1999/xlink" x="0px" y="0px"
	 viewBox="0 0 220 82" style="enable-background:new 0 0 220 82;" xml:space="preserve">
<style type="text/css">
	.st0{fill:#080304;}
	.st1{fill:#979798;}
	.st2{fill-rule:evenodd;clip-rule:evenodd;fill:#221815;}
</style>
<rect class="st0" width="16.8" height="82"/>
<polygon class="st1" points="26.5,44.4 26.5,37.5 11.2,37.5 11.2,38.2 11.2,44.4 11.2,53.3 11.2,60.3 11.2,69.6 11.2,73 11.2,76.5 
	26.5,76.5 26.5,69.6 16.8,69.6 16.8,60.3 26.5,60.3 26.5,53.3 16.8,53.3 16.8,44.4 "/>
<path class="st2" d="M77.4,52.7l-2,1.4c-4.5-5.3-7-12.3-7.6-21.2c3.1-1.8,5.7-3.8,7.7-5.9l1.7,1.7c-1.6,1.7-3.9,3.5-6.9,5.6
	C70.8,41.6,73.1,47.7,77.4,52.7z M69.9,21.6c-3.1,2.6-6.7,5.2-10.6,7.7v2.5h6v2.3h-6v4.6h7.5v2.2h-7.5v4.6h8.8v2.2h-8.8v5.9
	c0,1-0.2,1.8-0.7,2.4c-0.5,0.6-1,1-1.6,1.2s-1.6,0.3-3,0.3c-0.7,0-1.7,0-2.8-0.1L50.4,55c1.1,0.1,2.1,0.1,3.1,0.1
	c1.7,0,2.7-0.1,3-0.3c0.3-0.2,0.5-0.5,0.5-0.8v-6.3H46.8v-2.2H57v-4.6h-8.1v-2.2H57v-4.6h-7.5v-2.3H57v-3.7c3.9-2.6,7.2-4.9,9.7-6.8
	H44.4v-2.2h25.5V21.6z M47.4,29.5c-0.2,6.2-0.9,11.1-2.2,14.8c-1.3,3.7-3.3,7-6,9.9l-2-1.5c4.5-4.6,7.1-11.6,7.9-21h-7.3v-2.2H47.4z
	"/>
<path class="st2" d="M122.9,55.3l-2.1,1.3c-0.9-2.6-2.3-5.3-4-8.1l2.1-1C120.3,49.6,121.6,52.2,122.9,55.3z M111.2,50.5l-1.7,1.5
	c-1-1.5-2.3-2.8-3.7-4.1l1.6-1.4C108.7,47.6,110,48.9,111.2,50.5z M113.9,23.6h-11.1c0.5,1,1,2.4,1.7,4.2h7.3
	C112.7,26.2,113.4,24.9,113.9,23.6z M116.3,51.5c-0.3,2.5-1,4.1-1.9,4.7c-1,0.6-3.1,0.9-6.5,0.9c-2.4,0-4-0.1-4.7-0.2
	c-0.7-0.1-1.2-0.5-1.7-1c-0.4-0.5-0.6-1.3-0.6-2.3v-6.3h2.3v6.4c0,0.4,0.2,0.7,0.5,0.9c0.3,0.2,1.8,0.3,4.4,0.3
	c1.9,0,3.3-0.1,4.2-0.3c0.9-0.2,1.5-1.5,1.8-4L116.3,51.5z M116.5,43v-3.2H98.9V43H116.5z M116.5,37.8v-3H98.9v3H116.5z M118.9,45.2
	H96.6V32.7h22.3V45.2z M122.3,29.9H94.2v-2.1h7.8c-0.4-1.5-1-2.9-1.8-4.2h-4.8v-2.2h11.5c-0.5-1.1-1-2.1-1.5-3l2.4-0.7
	c0.7,1.2,1.3,2.4,1.8,3.7h11.7v2.2h-4.8c-0.7,1.6-1.4,3-2.1,4.2h7.9V29.9z M98.8,48.5c-1,3.1-2.3,5.8-3.9,8.2l-2.1-1.3
	c1.5-2.1,2.8-4.7,3.9-7.7L98.8,48.5z M94,18.6c-0.7,1.9-1.4,3.8-2.2,5.7l-1.2,2.6v30.7h-2.3v-26c-1.5,2.5-2.9,4.5-4.3,6.2l-1.2-2.4
	c3.5-4.5,6.4-10.4,8.9-17.7L94,18.6z"/>
<path class="st2" d="M162.6,34.2v-4.2h-8.1v4.2H162.6z M162.6,27.8v-3.8h-8.1v3.8H162.6z M168.2,30.1H165v6.4h-10.4v3.8h11.3v2.2
	h-11.3v3.7h12.9v2.2h-12.9v4.5h-2.3v-4.5h-11.3v-2.2h11.3v-3.7h-9.6v-2.2h9.6v-3.8h-8.7v-2.3h8.7v-4.2H141v-2.3h11.3v-3.9h-8.7v-2.2
	h8.7v-3.4h2.3v3.4H165v6.1h3.3V30.1z M168.6,54.6L168,57c-2.8,0.1-5.4,0.1-7.8,0.1c-5.4,0-9.2-0.1-11.5-0.4
	c-2.3-0.3-4.5-0.8-6.8-1.6c-2.2-0.8-4.2-2-5.9-3.8c-2.2,2.7-4.2,4.8-6.2,6.3l-1.6-1.8c2.3-1.8,4.3-3.9,6.1-6.3
	c-1.7-2.3-3.1-5.2-4.3-8.9l2.2-0.9c0.9,3.2,2,5.7,3.4,7.5c1.6-3.3,2.5-7.2,2.7-11.6h-8.5v-2.1c2.8-3.5,5.6-7.6,8.5-12.2h-9.4v-2.3
	h11.9v2.3c-2.8,4.6-5.5,8.6-8,12h7.9c-0.3,6.6-1.5,11.9-3.5,15.8c1.4,1.5,3.1,2.6,4.9,3.4c1.8,0.8,3.7,1.4,5.8,1.6
	c2.1,0.3,6.1,0.4,12.1,0.4C163,54.7,165.9,54.7,168.6,54.6z"/>
<path class="st2" d="M208.3,39.3h-12.6c1.6,4.4,3.7,7.8,6.4,10C204.9,46.9,206.9,43.5,208.3,39.3z M214.1,34.4h-4.5
	c-2.2,0-3.3-1-3.3-3.1v-9.7h-8.1c-0.1,4.2-0.6,7.3-1.7,9.3c-1.1,2-2.5,3.6-4.3,4.8l-1.8-1.6c1.8-1.1,3.2-2.7,4.2-4.7
	c1-2,1.4-5.3,1.3-10h12.6v11.3c0,1,0.5,1.5,1.5,1.5h3.9V34.4z M214.3,55.7l-1.4,1.9c-4.6-1.5-8.2-3.3-10.7-5.2
	c-2.9,2.1-6.6,3.7-11,5l-1.4-1.9c4.6-1.3,8.1-2.9,10.4-4.6c-3.2-2.9-5.4-6.7-6.9-11.5h-1.6V37h19.2v2.3c-2,5.3-4.3,9.1-6.9,11.6
	C206.6,52.8,210,54.3,214.3,55.7z M186.4,51.8v-7h-8.3v7H186.4z M188.7,56.6h-2.4v-2.5h-8.3v3.3h-2.4V42.4h13V56.6z M189.4,31.4h-14
	v-2.3h14V31.4z M189.4,38.1h-14v-2.3h14V38.1z M190.6,24.9h-16.2v-2.4h7.1c-0.4-1.3-1-2.6-1.8-4l2.1-0.9c0.9,1.5,1.6,3.1,2.2,4.9
	h6.5V24.9z"/>
<path class="st2" d="M48.6,77.3c-1,0.5-2.2,0.8-3.6,0.8c-1.8,0-3.3-0.6-4.4-1.8c-1.1-1.2-1.7-2.7-1.7-4.6c0-2,0.6-3.6,1.8-5
	c1.2-1.3,2.8-2,4.8-2c1.2,0,2.3,0.2,3.1,0.5v1.5c-0.9-0.5-2-0.8-3.1-0.8c-1.5,0-2.8,0.5-3.7,1.5c-0.9,1-1.4,2.4-1.4,4
	c0,1.5,0.4,2.8,1.3,3.8c0.9,1,2,1.5,3.5,1.5c1.3,0,2.5-0.3,3.4-0.9V77.3z"/>
<path class="st2" d="M58.8,77.9h-1.4v-5.3c0-2-0.7-2.9-2.2-2.9c-0.8,0-1.4,0.3-1.9,0.8c-0.5,0.6-0.8,1.3-0.8,2.2v5.2h-1.4V64.2h1.4
	v6h0c0.7-1.2,1.7-1.8,3.1-1.8c2.1,0,3.1,1.3,3.1,3.8V77.9z"/>
<path class="st2" d="M64.5,73.5c-0.8,0.1-1.4,0.3-1.7,0.6c-0.3,0.3-0.5,0.7-0.5,1.3c0,0.5,0.2,0.8,0.5,1.1c0.3,0.3,0.8,0.4,1.3,0.4
	c0.7,0,1.4-0.3,1.9-0.8c0.5-0.5,0.7-1.2,0.7-2v-0.9L64.5,73.5z M61.8,69.3c0.9-0.6,2-0.9,3.1-0.9c2.2,0,3.2,1.1,3.2,3.4v6h-1.4v-1.4
	h-0.1c-0.7,1.1-1.6,1.7-2.9,1.7c-0.9,0-1.6-0.2-2.2-0.7c-0.5-0.5-0.8-1.1-0.8-1.9c0-1.7,1-2.7,3.1-3l2.8-0.4c0-1.6-0.7-2.4-1.9-2.4
	c-1.1,0-2.1,0.4-3,1.1V69.3z"/>
<path class="st2" d="M78.7,77.9h-1.4v-5.3c0-2-0.7-3-2.2-3c-0.8,0-1.4,0.3-1.9,0.8c-0.5,0.6-0.7,1.3-0.7,2.1v5.3H71v-9.2h1.4v1.5h0
	c0.7-1.2,1.7-1.8,3.1-1.8c1,0,1.8,0.3,2.3,1s0.8,1.6,0.8,2.8V77.9z"/>
<path class="st2" d="M94.4,64.9l-4.3,8.1v4.8h-1.4v-4.8l-4.2-8.2h1.7l3,5.9c0.1,0.1,0.2,0.3,0.3,0.8h0c0.1-0.2,0.2-0.5,0.4-0.8
	l3.1-5.9H94.4z"/>
<path class="st2" d="M100.4,72.4c0-0.9-0.2-1.5-0.6-2c-0.4-0.5-1-0.7-1.7-0.7c-0.7,0-1.3,0.2-1.8,0.7c-0.5,0.5-0.8,1.2-1,2H100.4z
	 M101.9,73.6h-6.6c0,1.1,0.3,1.9,0.8,2.4c0.5,0.6,1.3,0.8,2.2,0.8c1.1,0,2-0.3,2.9-1v1.3c-0.8,0.6-1.9,0.9-3.2,0.9
	c-1.3,0-2.3-0.4-3.1-1.3c-0.8-0.8-1.1-2-1.1-3.5c0-1.4,0.4-2.5,1.2-3.5c0.8-0.9,1.8-1.4,3-1.4c1.2,0,2.1,0.4,2.8,1.2
	c0.7,0.8,1,1.9,1,3.3V73.6z"/>
<path class="st2" d="M110.2,72.4c0-0.9-0.2-1.5-0.6-2c-0.4-0.5-1-0.7-1.7-0.7c-0.7,0-1.3,0.2-1.8,0.7c-0.5,0.5-0.8,1.2-1,2H110.2z
	 M111.6,73.6H105c0,1.1,0.3,1.9,0.8,2.4c0.5,0.6,1.3,0.8,2.2,0.8c1.1,0,2-0.3,2.9-1v1.3c-0.8,0.6-1.9,0.9-3.2,0.9
	c-1.3,0-2.3-0.4-3.1-1.3c-0.8-0.8-1.1-2-1.1-3.5c0-1.4,0.4-2.5,1.2-3.5c0.8-0.9,1.8-1.4,3-1.4c1.2,0,2.1,0.4,2.8,1.2
	c0.7,0.8,1,1.9,1,3.3V73.6z"/>
<path class="st2" d="M127.3,77.3c-1,0.5-2.2,0.8-3.6,0.8c-1.8,0-3.3-0.6-4.4-1.8c-1.1-1.2-1.7-2.7-1.7-4.6c0-2,0.6-3.6,1.8-5
	c1.2-1.3,2.8-2,4.8-2c1.2,0,2.3,0.2,3.1,0.5v1.5c-0.9-0.5-2-0.8-3.1-0.8c-1.6,0-2.8,0.5-3.7,1.5c-0.9,1-1.4,2.4-1.4,4
	c0,1.5,0.4,2.8,1.3,3.8c0.9,1,2,1.5,3.5,1.5c1.3,0,2.5-0.3,3.4-0.9V77.3z"/>
<path class="st2" d="M130.5,73.3c0,1.1,0.3,2,0.9,2.6c0.6,0.6,1.4,1,2.3,1c1,0,1.7-0.3,2.3-0.9c0.5-0.6,0.8-1.5,0.8-2.7
	c0-1.2-0.3-2.1-0.8-2.7c-0.5-0.6-1.3-0.9-2.3-0.9c-1,0-1.7,0.3-2.3,1C130.8,71.3,130.5,72.2,130.5,73.3z M129.1,73.4
	c0-1.5,0.4-2.7,1.3-3.6c0.9-0.9,2-1.3,3.4-1.3c1.4,0,2.4,0.4,3.2,1.3c0.8,0.9,1.2,2,1.2,3.5c0,1.5-0.4,2.6-1.3,3.5s-2,1.3-3.4,1.3
	c-1.3,0-2.4-0.4-3.3-1.3C129.5,75.9,129.1,74.8,129.1,73.4z"/>
<path class="st2" d="M148.3,77.9h-1.4v-5.3c0-2-0.7-3-2.2-3c-0.8,0-1.4,0.3-1.9,0.8c-0.5,0.6-0.7,1.3-0.7,2.1v5.3h-1.4v-9.2h1.4v1.5
	h0c0.7-1.2,1.7-1.8,3.1-1.8c1,0,1.8,0.3,2.3,1c0.5,0.7,0.8,1.6,0.8,2.8V77.9z"/>
<path class="st2" d="M150.5,76c0.8,0.6,1.7,0.9,2.7,0.9c1.3,0,2-0.4,2-1.3c0-0.4-0.1-0.7-0.4-1c-0.3-0.3-0.9-0.5-1.7-0.8
	c-1-0.4-1.7-0.8-2-1.2c-0.3-0.4-0.5-0.9-0.5-1.5c0-0.8,0.3-1.4,1-1.9c0.7-0.5,1.5-0.7,2.5-0.7c0.8,0,1.5,0.1,2.1,0.4v1.5
	c-0.7-0.4-1.5-0.7-2.4-0.7c-0.6,0-1,0.1-1.3,0.4c-0.3,0.3-0.5,0.6-0.5,1s0.1,0.7,0.4,0.9c0.2,0.2,0.8,0.5,1.6,0.8
	c1.1,0.4,1.8,0.8,2.1,1.2c0.4,0.4,0.5,0.9,0.5,1.5c0,0.8-0.3,1.5-1,1.9c-0.7,0.5-1.6,0.7-2.6,0.7c-1,0-1.8-0.2-2.5-0.6V76z"/>
<path class="st2" d="M163.2,77.8c-0.3,0.2-0.8,0.3-1.4,0.3c-1.6,0-2.4-0.9-2.4-2.7v-5.5h-1.6v-1.2h1.6v-2.3l1.4-0.4v2.7h2.4v1.2
	h-2.4v5.3c0,0.6,0.1,1.1,0.3,1.3c0.2,0.3,0.6,0.4,1.1,0.4c0.4,0,0.7-0.1,1-0.3V77.8z"/>
<path class="st2" d="M170,70.1c-0.3-0.2-0.6-0.3-1.1-0.3c-0.7,0-1.2,0.3-1.6,0.9c-0.4,0.6-0.6,1.4-0.6,2.4v4.7h-1.4v-9.2h1.4v1.9h0
	c0.2-0.7,0.5-1.2,1-1.5s0.9-0.5,1.4-0.5c0.4,0,0.7,0,0.9,0.1V70.1z"/>
<path class="st2" d="M179.1,77.9h-1.4v-1.5h0c-0.6,1.1-1.6,1.7-2.9,1.7c-2.2,0-3.3-1.3-3.3-3.9v-5.5h1.4v5.3c0,2,0.8,3,2.3,3
	c0.8,0,1.4-0.3,1.8-0.8c0.5-0.5,0.7-1.3,0.7-2.1v-5.3h1.4V77.9z"/>
<path class="st2" d="M188.4,77.4c-0.7,0.4-1.6,0.7-2.5,0.7c-1.3,0-2.4-0.4-3.2-1.3c-0.8-0.8-1.2-2-1.2-3.3c0-1.5,0.4-2.8,1.3-3.7
	c0.9-0.9,2-1.4,3.5-1.4c0.8,0,1.5,0.2,2.1,0.4v1.5c-0.7-0.5-1.4-0.7-2.2-0.7c-1,0-1.7,0.3-2.4,1c-0.6,0.7-0.9,1.6-0.9,2.7
	c0,1.1,0.3,2,0.9,2.6c0.6,0.6,1.4,0.9,2.3,0.9c0.8,0,1.6-0.3,2.3-0.8V77.4z"/>
<path class="st2" d="M195,77.8c-0.4,0.2-0.8,0.3-1.4,0.3c-1.6,0-2.4-0.9-2.4-2.7v-5.5h-1.6v-1.2h1.6v-2.3l1.4-0.4v2.7h2.4v1.2h-2.4
	v5.3c0,0.6,0.1,1.1,0.3,1.3c0.2,0.3,0.6,0.4,1.1,0.4c0.4,0,0.7-0.1,1-0.3V77.8z"/>
<path class="st2" d="M197,77.9v-9.2h1.4v9.2H197z M196.8,65.3c0-0.3,0.1-0.5,0.3-0.7c0.2-0.2,0.4-0.3,0.6-0.3c0.3,0,0.5,0.1,0.7,0.3
	c0.2,0.2,0.3,0.4,0.3,0.7c0,0.2-0.1,0.5-0.3,0.6c-0.2,0.2-0.4,0.3-0.7,0.3c-0.3,0-0.5-0.1-0.7-0.3S196.8,65.6,196.8,65.3z"/>
<path class="st2" d="M202.3,73.3c0,1.1,0.3,2,0.9,2.6c0.6,0.6,1.4,1,2.3,1c1,0,1.7-0.3,2.3-0.9c0.5-0.6,0.8-1.5,0.8-2.7
	c0-1.2-0.3-2.1-0.8-2.7c-0.5-0.6-1.3-0.9-2.3-0.9c-1,0-1.7,0.3-2.3,1C202.6,71.3,202.3,72.2,202.3,73.3z M200.8,73.4
	c0-1.5,0.4-2.7,1.3-3.6c0.8-0.9,2-1.3,3.4-1.3c1.4,0,2.4,0.4,3.2,1.3c0.8,0.9,1.2,2,1.2,3.5c0,1.5-0.4,2.6-1.3,3.5s-2,1.3-3.3,1.3
	c-1.4,0-2.4-0.4-3.3-1.3C201.2,75.9,200.8,74.8,200.8,73.4z"/>
<path class="st2" d="M220,77.9h-1.4v-5.3c0-2-0.7-3-2.2-3c-0.8,0-1.4,0.3-1.9,0.8c-0.5,0.6-0.7,1.3-0.7,2.1v5.3h-1.4v-9.2h1.4v1.5h0
	c0.7-1.2,1.7-1.8,3.1-1.8c1,0,1.8,0.3,2.3,1c0.5,0.7,0.8,1.6,0.8,2.8V77.9z"/>
</svg>
