<?xml version="1.0" encoding="utf-8"?>
<!-- Generator: Adobe Illustrator 21.0.0, SVG Export Plug-In . SVG Version: 6.00 Build 0)  -->
<svg version="1.1" id="圖層_1" xmlns="http://www.w3.org/2000/svg" xmlns:xlink="http://www.w3.org/1999/xlink" x="0px" y="0px"
	 viewBox="0 0 148 56" style="enable-background:new 0 0 148 56;" xml:space="preserve">
<style type="text/css">
	.st0{fill:#FFFFFF;}
	.st1{fill-rule:evenodd;clip-rule:evenodd;fill:#FFFFFF;}
	.st2{fill:#979798;}
</style>
<rect class="st0" width="11.3" height="56"/>
<path class="st1" d="M52.1,36l-1.3,0.9c-3-3.6-4.7-8.4-5.1-14.5c2.1-1.3,3.8-2.6,5.2-4l1.1,1.1c-1.1,1.1-2.6,2.4-4.6,3.8
	C47.6,28.4,49.2,32.6,52.1,36z M47,14.7c-2.1,1.8-4.5,3.6-7.1,5.3v1.7h4v1.6h-4v3.1h5V28h-5v3.1h5.9v1.5h-5.9v4
	c0,0.7-0.2,1.3-0.5,1.7c-0.3,0.4-0.7,0.7-1.1,0.8c-0.4,0.1-1.1,0.2-2,0.2c-0.5,0-1.1,0-1.9,0l-0.6-1.7c0.7,0,1.4,0.1,2.1,0.1
	c1.1,0,1.8-0.1,2-0.2c0.2-0.1,0.3-0.3,0.3-0.5v-4.3h-6.8v-1.5h6.8V28h-5.4v-1.5h5.4v-3.1h-5v-1.6h5v-2.5c2.6-1.8,4.8-3.3,6.5-4.7
	h-15v-1.5H47V14.7z M31.9,20.1c-0.1,4.2-0.6,7.6-1.5,10.1c-0.9,2.6-2.2,4.8-4.1,6.7L25,36c3-3.2,4.8-7.9,5.3-14.4h-4.9v-1.5H31.9z"
	/>
<path class="st1" d="M82.7,37.8l-1.4,0.9c-0.6-1.8-1.5-3.6-2.7-5.5l1.4-0.7C80.9,33.9,81.8,35.6,82.7,37.8z M74.8,34.5l-1.2,1.1
	c-0.7-1-1.5-1.9-2.5-2.8l1.1-0.9C73.2,32.5,74,33.4,74.8,34.5z M76.6,16.1h-7.5c0.3,0.7,0.7,1.6,1.1,2.9h4.9
	C75.8,17.9,76.3,17,76.6,16.1z M78.3,35.2c-0.2,1.7-0.7,2.8-1.3,3.2c-0.7,0.4-2.1,0.6-4.4,0.6c-1.6,0-2.7-0.1-3.1-0.2
	c-0.5-0.1-0.8-0.3-1.1-0.7s-0.4-0.9-0.4-1.5v-4.3h1.6v4.4c0,0.3,0.1,0.5,0.3,0.6c0.2,0.1,1.2,0.2,3,0.2c1.3,0,2.2,0,2.8-0.2
	c0.6-0.1,1-1,1.2-2.7L78.3,35.2z M78.4,29.4v-2.2H66.6v2.2H78.4z M78.4,25.8v-2H66.6v2H78.4z M80,30.9H65v-8.5h15V30.9z M82.3,20.4
	H63.3V19h5.2c-0.3-1-0.7-2-1.2-2.9h-3.2v-1.5h7.7c-0.3-0.8-0.7-1.4-1-2l1.6-0.5c0.5,0.8,0.9,1.7,1.2,2.5h7.9v1.5h-3.2
	c-0.5,1.1-0.9,2-1.4,2.9h5.3V20.4z M66.5,33.1c-0.7,2.1-1.6,4-2.6,5.6l-1.4-0.9c1-1.5,1.9-3.2,2.6-5.3L66.5,33.1z M63.2,12.7
	c-0.5,1.3-0.9,2.6-1.5,3.9l-0.8,1.8v21h-1.5V21.6c-1,1.7-1.9,3.1-2.9,4.2l-0.8-1.6c2.3-3.1,4.3-7.1,6-12.1L63.2,12.7z"/>
<path class="st1" d="M109.4,23.4v-2.8H104v2.8H109.4z M109.4,19v-2.6H104V19H109.4z M113.2,20.5H111v4.4h-7v2.6h7.6V29H104v2.5h8.7
	V33H104v3.1h-1.5V33h-7.6v-1.5h7.6V29H96v-1.5h6.5v-2.6h-5.9v-1.5h5.9v-2.8h-7.6V19h7.6v-2.7h-5.8v-1.5h5.8v-2.3h1.5v2.3h7V19h2.2
	V20.5z M113.4,37.3l-0.4,1.6c-1.9,0-3.6,0.1-5.3,0.1c-3.6,0-6.2-0.1-7.7-0.3c-1.5-0.2-3.1-0.5-4.6-1.1c-1.5-0.5-2.8-1.4-4-2.6
	c-1.5,1.9-2.9,3.3-4.2,4.3l-1.1-1.3c1.5-1.2,2.9-2.6,4.1-4.3c-1.1-1.5-2.1-3.6-2.9-6.1l1.4-0.6c0.6,2.2,1.3,3.9,2.3,5.2
	c1.1-2.3,1.7-4.9,1.8-7.9h-5.7V23c1.9-2.4,3.8-5.2,5.7-8.3h-6.3v-1.5h8v1.5c-1.9,3.2-3.7,5.9-5.4,8.2h5.3c-0.2,4.5-1,8.1-2.4,10.8
	c1,1,2.1,1.8,3.3,2.3c1.2,0.6,2.5,0.9,3.9,1.1c1.4,0.2,4.1,0.3,8.2,0.3C109.6,37.4,111.6,37.3,113.4,37.3z"/>
<path class="st1" d="M140.1,26.9h-8.5c1.1,3,2.5,5.3,4.3,6.9C137.8,32,139.2,29.7,140.1,26.9z M144,23.5h-3c-1.5,0-2.2-0.7-2.2-2.1
	v-6.7h-5.4c-0.1,2.8-0.4,5-1.1,6.3c-0.7,1.4-1.7,2.5-2.9,3.3l-1.2-1.1c1.2-0.8,2.2-1.8,2.8-3.2s1-3.6,0.9-6.8h8.5v7.7
	c0,0.7,0.3,1,1,1h2.6V23.5z M144.1,38l-0.9,1.3c-3.1-1-5.5-2.2-7.2-3.6c-2,1.4-4.4,2.5-7.4,3.4l-1-1.3c3.1-0.9,5.4-2,7-3.2
	c-2.1-2-3.7-4.6-4.6-7.9h-1v-1.6h12.9v1.6c-1.3,3.6-2.9,6.2-4.6,7.9C139,36,141.3,37.1,144.1,38z M125.4,35.3v-4.8h-5.6v4.8H125.4z
	 M127,38.6h-1.6v-1.7h-5.6v2.3h-1.6V28.9h8.8V38.6z M127.4,21.5H118v-1.5h9.4V21.5z M127.4,26h-9.5v-1.6h9.5V26z M128.3,17h-10.9
	v-1.6h4.8c-0.3-0.9-0.7-1.8-1.2-2.7l1.4-0.6c0.6,1,1.1,2.1,1.5,3.4h4.4V17z"/>
<path class="st1" d="M32.7,52.8c-0.6,0.3-1.5,0.5-2.4,0.5c-1.2,0-2.2-0.4-3-1.2c-0.8-0.8-1.1-1.9-1.1-3.2c0-1.4,0.4-2.5,1.2-3.4
	c0.8-0.9,1.9-1.3,3.2-1.3c0.8,0,1.5,0.1,2.1,0.4v1c-0.6-0.3-1.3-0.5-2.1-0.5c-1,0-1.9,0.4-2.5,1.1c-0.6,0.7-0.9,1.6-0.9,2.7
	c0,1,0.3,1.9,0.9,2.6c0.6,0.7,1.4,1,2.3,1c0.9,0,1.7-0.2,2.3-0.6V52.8z"/>
<path class="st1" d="M39.5,53.2h-0.9v-3.6c0-1.3-0.5-2-1.5-2c-0.5,0-0.9,0.2-1.3,0.6c-0.3,0.4-0.5,0.9-0.5,1.5v3.6h-1v-9.3h1v4.1h0
	c0.5-0.8,1.2-1.2,2.1-1.2c1.4,0,2.1,0.9,2.1,2.6V53.2z"/>
<path class="st1" d="M43.4,50.2c-0.5,0.1-0.9,0.2-1.1,0.4C42.1,50.8,42,51,42,51.4c0,0.3,0.1,0.6,0.3,0.8c0.2,0.2,0.5,0.3,0.9,0.3
	c0.5,0,0.9-0.2,1.3-0.5c0.3-0.4,0.5-0.8,0.5-1.3V50L43.4,50.2z M41.6,47.3c0.6-0.4,1.3-0.6,2.1-0.6c1.5,0,2.2,0.8,2.2,2.3v4.1h-0.9
	v-1h0c-0.4,0.8-1.1,1.1-1.9,1.1c-0.6,0-1.1-0.2-1.5-0.5C41.2,52.5,41,52,41,51.5c0-1.2,0.7-1.8,2.1-2l1.9-0.3c0-1.1-0.4-1.6-1.3-1.6
	c-0.8,0-1.4,0.3-2,0.8V47.3z"/>
<path class="st1" d="M52.9,53.2H52v-3.6c0-1.3-0.5-2-1.5-2c-0.5,0-0.9,0.2-1.3,0.6c-0.3,0.4-0.5,0.9-0.5,1.5v3.6h-1v-6.3h1v1h0
	c0.5-0.8,1.1-1.2,2-1.2c0.7,0,1.2,0.2,1.6,0.7c0.4,0.4,0.5,1.1,0.5,1.9V53.2z"/>
<path class="st1" d="M63.5,44.4l-2.9,5.5v3.3h-1v-3.2l-2.8-5.6H58l2,4c0,0.1,0.1,0.2,0.2,0.5h0c0-0.1,0.1-0.3,0.2-0.5l2.1-4H63.5z"
	/>
<path class="st1" d="M67.6,49.4c0-0.6-0.1-1-0.4-1.4c-0.3-0.3-0.7-0.5-1.2-0.5c-0.4,0-0.8,0.2-1.2,0.5c-0.3,0.3-0.6,0.8-0.7,1.4
	H67.6z M68.5,50.3h-4.5c0,0.7,0.2,1.3,0.6,1.7c0.4,0.4,0.9,0.6,1.5,0.6c0.7,0,1.4-0.2,1.9-0.7v0.9c-0.6,0.4-1.3,0.6-2.2,0.6
	c-0.9,0-1.6-0.3-2.1-0.9c-0.5-0.6-0.8-1.4-0.8-2.4c0-1,0.3-1.8,0.8-2.4c0.6-0.6,1.2-0.9,2.1-0.9c0.8,0,1.4,0.3,1.9,0.8
	c0.4,0.5,0.7,1.3,0.7,2.2V50.3z"/>
<path class="st1" d="M74.1,49.4c0-0.6-0.1-1-0.4-1.4c-0.3-0.3-0.7-0.5-1.2-0.5c-0.4,0-0.8,0.2-1.2,0.5c-0.4,0.3-0.6,0.8-0.7,1.4
	H74.1z M75.1,50.3h-4.5c0,0.7,0.2,1.3,0.6,1.7c0.4,0.4,0.9,0.6,1.5,0.6c0.7,0,1.4-0.2,2-0.7v0.9c-0.6,0.4-1.3,0.6-2.2,0.6
	c-0.9,0-1.6-0.3-2.1-0.9s-0.8-1.4-0.8-2.4c0-1,0.3-1.8,0.8-2.4c0.5-0.6,1.2-0.9,2-0.9c0.8,0,1.4,0.3,1.9,0.8
	c0.4,0.5,0.7,1.3,0.7,2.2V50.3z"/>
<path class="st1" d="M85.6,52.8c-0.7,0.3-1.5,0.5-2.4,0.5c-1.2,0-2.2-0.4-3-1.2c-0.8-0.8-1.1-1.9-1.1-3.2c0-1.4,0.4-2.5,1.2-3.4
	c0.8-0.9,1.9-1.3,3.2-1.3c0.8,0,1.5,0.1,2.1,0.4v1c-0.6-0.3-1.3-0.5-2.1-0.5c-1,0-1.9,0.4-2.5,1.1c-0.6,0.7-0.9,1.6-0.9,2.7
	c0,1,0.3,1.9,0.9,2.6c0.6,0.7,1.4,1,2.3,1c0.9,0,1.7-0.2,2.3-0.6V52.8z"/>
<path class="st1" d="M87.8,50.1c0,0.8,0.2,1.3,0.6,1.8c0.4,0.5,0.9,0.7,1.6,0.7c0.7,0,1.2-0.2,1.5-0.6s0.5-1,0.5-1.8
	c0-0.8-0.2-1.4-0.5-1.9c-0.3-0.4-0.9-0.6-1.5-0.6c-0.7,0-1.2,0.2-1.6,0.7C88,48.7,87.8,49.3,87.8,50.1z M86.8,50.1
	c0-1,0.3-1.9,0.8-2.5c0.6-0.6,1.3-0.9,2.3-0.9c0.9,0,1.6,0.3,2.2,0.9C92.7,48.2,93,49,93,50c0,1-0.3,1.8-0.8,2.4
	c-0.6,0.6-1.3,0.9-2.3,0.9c-0.9,0-1.6-0.3-2.2-0.9C87.1,51.9,86.8,51.1,86.8,50.1z"/>
<path class="st1" d="M99.7,53.2h-0.9v-3.6c0-1.3-0.5-2-1.5-2c-0.5,0-0.9,0.2-1.3,0.6c-0.3,0.4-0.5,0.9-0.5,1.5v3.6h-1v-6.3h1v1h0
	c0.5-0.8,1.2-1.2,2.1-1.2c0.7,0,1.2,0.2,1.6,0.7c0.4,0.4,0.5,1.1,0.5,1.9V53.2z"/>
<path class="st1" d="M101.3,51.9c0.5,0.4,1.2,0.6,1.8,0.6c0.9,0,1.3-0.3,1.3-0.9c0-0.3-0.1-0.5-0.3-0.6c-0.2-0.2-0.6-0.4-1.2-0.6
	c-0.7-0.3-1.1-0.5-1.3-0.8c-0.2-0.3-0.3-0.6-0.3-1c0-0.5,0.2-1,0.7-1.3c0.5-0.3,1-0.5,1.7-0.5c0.5,0,1,0.1,1.4,0.3v1
	c-0.5-0.3-1-0.5-1.6-0.5c-0.4,0-0.7,0.1-0.9,0.3c-0.2,0.2-0.3,0.4-0.3,0.7s0.1,0.5,0.2,0.6c0.2,0.1,0.5,0.3,1.1,0.6
	c0.7,0.3,1.2,0.5,1.4,0.8c0.2,0.3,0.4,0.6,0.4,1c0,0.6-0.2,1-0.7,1.3c-0.5,0.3-1.1,0.5-1.8,0.5c-0.6,0-1.2-0.1-1.7-0.4V51.9z"/>
<path class="st1" d="M109.8,53.1c-0.2,0.1-0.5,0.2-0.9,0.2c-1.1,0-1.6-0.6-1.6-1.8v-3.8h-1.1v-0.8h1.1v-1.5l0.9-0.3v1.9h1.6v0.8
	h-1.6v3.6c0,0.4,0.1,0.7,0.2,0.9c0.2,0.2,0.4,0.3,0.7,0.3c0.3,0,0.5-0.1,0.7-0.2V53.1z"/>
<path class="st1" d="M114.4,47.8c-0.2-0.1-0.4-0.2-0.8-0.2c-0.4,0-0.8,0.2-1.1,0.6c-0.3,0.4-0.4,1-0.4,1.7v3.2h-0.9v-6.3h0.9v1.3h0
	c0.1-0.5,0.4-0.8,0.7-1c0.3-0.3,0.6-0.4,1-0.4c0.3,0,0.5,0,0.6,0.1V47.8z"/>
<path class="st1" d="M120.5,53.2h-0.9v-1h0c-0.4,0.8-1.1,1.2-1.9,1.2c-1.5,0-2.3-0.9-2.3-2.7v-3.8h0.9v3.6c0,1.4,0.5,2,1.5,2
	c0.5,0,0.9-0.2,1.2-0.6c0.3-0.4,0.5-0.9,0.5-1.5v-3.6h0.9V53.2z"/>
<path class="st1" d="M126.8,52.9c-0.5,0.3-1.1,0.5-1.7,0.5c-0.9,0-1.6-0.3-2.2-0.9c-0.6-0.6-0.8-1.3-0.8-2.3c0-1,0.3-1.9,0.9-2.5
	c0.6-0.6,1.4-0.9,2.3-0.9c0.5,0,1,0.1,1.5,0.3v1c-0.5-0.3-1-0.5-1.5-0.5c-0.6,0-1.2,0.2-1.6,0.7c-0.4,0.5-0.6,1.1-0.6,1.9
	c0,0.8,0.2,1.3,0.6,1.8c0.4,0.4,0.9,0.6,1.6,0.6c0.5,0,1.1-0.2,1.5-0.5V52.9z"/>
<path class="st1" d="M131.2,53.1c-0.2,0.1-0.5,0.2-0.9,0.2c-1.1,0-1.6-0.6-1.6-1.8v-3.8h-1.1v-0.8h1.1v-1.5l0.9-0.3v1.9h1.6v0.8
	h-1.6v3.6c0,0.4,0.1,0.7,0.2,0.9c0.1,0.2,0.4,0.3,0.7,0.3c0.3,0,0.5-0.1,0.7-0.2V53.1z"/>
<path class="st1" d="M132.5,53.2v-6.3h0.9v6.3H132.5z M132.4,44.6c0-0.2,0.1-0.3,0.2-0.5c0.1-0.1,0.3-0.2,0.4-0.2s0.3,0.1,0.5,0.2
	c0.1,0.1,0.2,0.3,0.2,0.4c0,0.2-0.1,0.3-0.2,0.4c-0.1,0.1-0.3,0.2-0.5,0.2c-0.2,0-0.3-0.1-0.4-0.2C132.4,44.9,132.4,44.8,132.4,44.6
	z"/>
<path class="st1" d="M136.1,50.1c0,0.8,0.2,1.3,0.6,1.8c0.4,0.5,0.9,0.7,1.6,0.7c0.7,0,1.2-0.2,1.5-0.6s0.5-1,0.5-1.8
	c0-0.8-0.2-1.4-0.5-1.9s-0.9-0.6-1.5-0.6c-0.6,0-1.2,0.2-1.6,0.7C136.3,48.7,136.1,49.3,136.1,50.1z M135.1,50.1
	c0-1,0.3-1.9,0.8-2.5c0.6-0.6,1.4-0.9,2.3-0.9c0.9,0,1.6,0.3,2.2,0.9c0.5,0.6,0.8,1.4,0.8,2.4c0,1-0.3,1.8-0.8,2.4
	c-0.6,0.6-1.3,0.9-2.3,0.9c-0.9,0-1.6-0.3-2.2-0.9C135.4,51.9,135.1,51.1,135.1,50.1z"/>
<path class="st1" d="M148,53.2h-0.9v-3.6c0-1.3-0.5-2-1.5-2c-0.5,0-0.9,0.2-1.3,0.6c-0.3,0.4-0.5,0.9-0.5,1.5v3.6h-0.9v-6.3h0.9v1h0
	c0.5-0.8,1.2-1.2,2.1-1.2c0.7,0,1.2,0.2,1.6,0.7c0.4,0.4,0.5,1.1,0.5,1.9V53.2z"/>
<polygon class="st2" points="17.9,30.3 17.9,25.6 7.5,25.6 7.5,26.1 7.5,30.3 7.5,36.4 7.5,41.2 7.5,47.5 7.5,49.9 7.5,52.2 
	17.9,52.2 17.9,47.5 11.3,47.5 11.3,41.2 17.9,41.2 17.9,36.4 11.3,36.4 11.3,30.3 "/>
</svg>
