<?xml version="1.0" encoding="utf-8"?>
<!-- Generator: Adobe Illustrator 21.0.0, SVG Export Plug-In . SVG Version: 6.00 Build 0)  -->
<svg version="1.1" id="圖層_1" xmlns="http://www.w3.org/2000/svg" xmlns:xlink="http://www.w3.org/1999/xlink" x="0px" y="0px"
	 viewBox="0 0 170.9 96.4" style="enable-background:new 0 0 170.9 96.4;" xml:space="preserve">
<style type="text/css">
	.st0{fill-rule:evenodd;clip-rule:evenodd;fill:#040000;}
</style>
<g>
	<path class="st0" d="M85.8,0c1.4,2.3-1,1-1.4,2.4c-1.1-0.1-3.1,1.3-3.9,1.9c-2.2,1.5-5.1,2.6-7.7,3.6c-2.9,1.1-5.1,2.6-8.1,3.3
		c-1.4,0.4-3.2,1.4-4.3,2.2c-1.5,1.1-1.8,3.4-3.8,3.5c-0.4-0.5-0.1-1,0.4-1c-1.5-2.3,3.8-5.2,5.3-6c2.4-1.3,5-2,7.4-3.1
		c1.4-0.6,2.8-1.1,4.1-1.8c1.1-0.5,2.5-1.3,3.7-1.6c0.6-0.2,3.8-1.4,3.8-2C83,1.2,84.1-0.2,85.8,0"/>
	<path class="st0" d="M30,16.1c1,0,1.6,0.4,2.6,0.5c0.1,0.4,1.3,2,1.7,2.2c-0.1,1.2,0.3,1.4-0.9,2.1c-1.3,0.7-2.6,1.6-4,2
		c-0.9,0.3-2.4,0.5-2.6,1.3c-0.3,1-0.6,2-0.6,3.3c-0.1,1.1-0.1,2.2-0.4,3.1c-0.1,0.6-0.8,1.6-0.8,2.2c0.6,0.3,3.1-0.7,3.7-1
		c0.8-0.3,3.4-0.6,3.9-1.3c3.1-0.2,5.9-2.5,8.9-2.5c0.8-0.7,2.9-0.9,3.9-1.1c1.2-0.2,2.2-0.5,3.4-0.8c2.2-0.4,6-2.1,7.8-0.6
		c1.1,0.9-4.2,2.7-5,3c-1.9,0.7-4.9,2.5-7.1,2.3c-0.9-0.1-2.1,0.5-3.2,0.4c-0.3,0.5-0.5,0.1-1,0.1c-0.6-0.8,0.7-0.7,0.7-1
		c0.6,0.1,3.3-0.3,3.7-0.9c1.3-0.2,2.6-0.5,3.6-1.3c-0.2-0.1-2.1,0.4-2.2,0.6c-1.5,0.1-2.8,0.7-4.2,1.1c-2.1,0.5-3.9,1.1-5.9,1.7
		c-3.2,1-6.5,2.1-9.6,3c-0.7,0.2-5.8,1.6-5.9,2.1c-1.1,0-1.1,2.2-0.7,2.2c0.9-0.1,1.2-0.2,2.1,0.1c0.3,0.1,0.9,0.8,1.3,0.8
		c0.1,0.3,1.2,2.7,1.2,2.7c0,2.5-1.4,4-1.7,6.5c1.8,0,3.2,0,2.4,2.2c-0.3,0.8-1,1.5-1.1,2.3c-0.4,0.2-1.4,1.4-1.5,1.8
		c-0.2,0.9-1.6,1.9-2.1,2.7c-0.5,0.7-1.1,1.2-1.3,2.2c1.5-0.4,2.7-2,4.2-2.7c0.8-0.3,1.8-0.5,2.7-0.3c0.1,1.2,1.2-1.4,1.3-1.5
		c1.2-2.6,2.4-5.5,4.2-8c0.9-1.3,1.5-2.7,2.3-4c0.4-0.6,1.8-2.2,1.8-2.9c0.6-0.4,1.6-1.6,1.8-2.4c0.3,0.1,2.1-2.6,2.5-3
		c0.6-0.6,2-1.4,2.5-2.1c1.1,0,1.3,0.8,2.2,1.4c0.3,2.1,1.4,4.1,2,6.2c0.2,1.5,0.9,4,1.6,5.4c1.7,3.2,2.9,6,5,9.1
		c1.6,0.2,2.5-0.9,3.8,0.6c0.3,0.4,0.7,0.8,1,1.3c0.7,0.9-1.7,0-1.9-0.1c-2.2,0.8,0.7,2.3,1.4,3.6c0.4,0.7,2.4,3.5,3.2,3.5
		c-0.7-0.8-0.9-3.1-0.9-4.1c1.6,0.5,2.2,3.1,2.1,4.4c0.9,3.8-2.7,0.4-3.9,0.1c-0.2-1.3-2.8-3.4-3.7-4.3c-0.3-0.3-0.8-1.9-1.4-1.4
		c-0.5,0.4-1,0.9-1.6,1.4c-0.6,0.5-1.1,1.1-1.6,1.7c-0.3,0.4-1.6,1.4-1.7,1.9c-0.4-0.1-2.3,1.8-2.4,0.1c0.3-0.7,1.7-1.3,2.1-2.1
		c0.5-0.7,1.9-3.5,2.8-3.8c0-0.8,0.9-1.1,0.9-1.9c-0.4,0-1.9-2.4-2-2.8c-0.6-1.8-2.1-3-2.6-4.9c-0.6-2.3-1.7-4.4-2.2-6.8
		c-0.2-1-1.6-6.3-2.2-6.1c-0.6,0.2-1.7,1.1-1.8,1.9c-0.8,0.4-2,1.8-2.2,2.6c-1.3,1.4-2.3,2.8-3.3,4.2c-0.8,1.2-1.4,3.2-2.5,4.1
		c-0.6,0.5-0.4,1.5-1,2.1c-0.5,0.6-0.9,1.7-1.1,2.5c-0.7,0.4-1.9,3-2,3.8c-0.1,0.7-2.8,6.1-2,6.8c1.5,1,1.4,1.6,0.8,3.4
		c-0.4,1.2-1.6,2.1-1.9,3.2c-1.2,0.5-1.9-1.2-2-2c0-0.3,0.5-1.2-0.3-1.1c-1.2,0.2-1.8-0.1-1.8-1.5c0.1,0,1.3-2.7,1.6-3.1
		c0.7-1,1.4-2.2,1.7-3.5c-0.8-0.2-3.2,1.5-3.8,2.2c-0.6,0.8-2.2,2-3.2,2.1c-2.4,0.3-2.7-1.2-1.6-2.9c0.5-0.7,1-1.3,1.2-2.2
		c0.2-1.2,0-2.7,0-3.9c0.1-2.9,0.3-5.4,0.4-8.2c0.1-1.6,0.2-3.1,0.2-4.7c0-1.3-0.3-2.9-0.1-4.1c-1.1,0.9-3.5,1-4.8,1.4
		c-2,0.7-3.9,0.9-5.9,1.6C5.4,41,3.5,41.4,1.9,42c-2,0.7-2.7-1.4-0.7-2.1C4.8,38.5,9,38.3,12.6,37c0.4-0.2,2.9-0.5,2.9-1
		c1.1,0,2-0.5,2-1.6c0-0.5,0-3.6,0.3-3.6c0-1.1,1.7-0.7,1.8-1.3c1-0.2,1.8-0.2,2.7,0.3c0.2,0.1,1.2,1.4,0.6,1.2
		c0,0.9-1.4,0.4-2.1,0.4c-1.8,0-1.4,1.9-1.2,3.2c1.8,0.2,3.2-1.2,3.9-2.6c1-2.1,0.6-4.2,0.6-6.4c0.4,0-0.1-1,0-1.1
		c-0.4,0.4-1.4,0.4-1.9,0.6c-1.4,0.3-4.6,2.4-5.9,0.8c-2.7-3.4,7-1.9,7.2-3.3c1.5,0.1,2.2-2.5,2.3-3.7c0.6-0.2,1-1.5,1.5-1.9
		C27.7,16.7,30,16,30,16.1 M30,18c-0.9-0.2-1.8,0.9-2.1,1.6c-0.3,0.7-1.3,1.9-0.3,1.7c1.4-0.1,3.7-1.1,4.7-1.9
		C33.5,18.3,30,18,30,18 M20.7,40.6c-1.8,2.2-1.3,6.8-1.5,9.4c1,0,2.4-3.8,2.7-4.7C22.3,44.2,23,40.6,20.7,40.6 M22.2,50.8
		c0,0.3-1.5,1-1.8,1.4c-0.9,1-1.7,2.3-0.9,3.9c0.6-2,3.2-3.2,3.6-5.3C22.8,50.7,22.5,50.7,22.2,50.8"/>
	<path class="st0" d="M141.1,24.7c0.2,0.6,0.7,4.9,0.1,5.3c0.8,2.1-0.4,4.4,0,6.5c0.4,2,0,3.8-0.7,5.6c-0.8,0.5-1.1,1-2,1.4
		c-1.2,0.5-2.9,0.8-3.9-0.2c0.8-1.2,3.7-0.5,4.4-1.9c1.1-2,0.2-5.6,0.3-7.9C139.4,31.9,137.9,23.7,141.1,24.7"/>
	<path class="st0" d="M101.4,25.2c0.2,0.3,1.8,1.4,2.2,1.7c0.1,1.4,0.7,2.5,0.4,4c-0.3,0.1-2.4,4.5-2.3,4.9c1.1,0.5,4.1-2,4.1,0.6
		c-0.1,0-2.4,2.8-2.7,3.2c-0.3,0.4-1.3,1.2-1.3,1.8c-1,0.3-0.4,1.5-1.3,1.9c0,0.7,4.3,0.6,4.8,0.6c0.6,0,1.1,0.5,1.8,0.4
		c0.4-0.3,2.2-0.8,2.2-1.3c1.7,0.2,3.1-2.7,4.7-2.5c1-1.5,0.5,0.6,0.5,0.8c-0.7,0.7-1.4,1.2-2.1,1.8c-0.7,0.6-2.6,2.5-3.5,2.3
		c1.2,1.2,1.6,4.3,0,5.4c0,1.1-1.8,1.1-2,1.9c-0.2,0-3.3,1.5-3.3,1.3c-0.6,0.1-4.5,0.5-4.5-0.2c-2.4,0.4-1.2-2.5-0.9-3.4
		c1.2-0.8,2.5-1.9,3.6-2.8c0.4-0.4,2-1.7,2.6-1.6c0.2-0.5-2.9-0.6-3.3-0.6c-1.4-0.1-2.5-1.1-2.5-2.5c0.1,0,3.3-4.4,3.3-5
		c-0.5,0.3-1.5,0-1.9-0.3c-0.3-0.3-1.2-2-0.4-2c0-0.3,0.5-1.9,0.9-2c0-0.9,0.6-1.9,1-2.6c0.7-1.5,0.8-3.3-0.9-3.6
		c-1.6-0.3-2.6,1.5-3.6,2.5c-0.9,0.8-1.8,1.8-2.1,3.1c-0.4,0-1.4,2.3-1.4,0.1c0.3,0,0.7-1.8,0.9-2.2C95.8,28,97.8,24.7,101.4,25.2
		 M107.3,46.5c-1.3,0.3-2.7,1.6-3.7,2.3c-1.2,0.8-3.2,1.8-3.4,3.5c1.3,0,5-0.3,5.7-1.6c0.6-0.1,2-1.5,2.3-1.5
		C108.4,48.3,108.4,46.7,107.3,46.5"/>
	<path class="st0" d="M84.6,26.9c0,0,0.5,0.8,0.4,1.3c-0.2,0.9-0.8,0.8-1.4,1.2c-0.7,0.6-3.2,1.8-3.2,2.9c-0.5,0.1-1.8,2.2-1.9,2.7
		c-0.4,0-1.7,2.3-2.3,2.7c-0.3,1.1-1.6,2.6-2.3,3.4c-0.7,0.8-0.9,2.8-1.7,3.3c0.1,0.7-0.4,1.7,0.1,2.3c0.1,0.1,0.6,0.5,0.6,0
		c0.6,0.1,2.2-1.3,2.7-1.5c-0.1,0.1-0.1,0.2-0.1,0.3c-1,0-0.3,0.6-0.8,1c-0.5,0.3-1.1,1-1.3,1.6c-0.7-0.1-1.1,0-1.7-0.2
		c-0.5-0.2-1-1.4-1.3-1.5c-0.6-3.1,1.3-5.8,3-8.2c0.9-1.2,1.8-2.4,2.7-3.4c0.2-0.3,1.1-2.1,1.4-2.1c0.2-1.3,2.5-3.1,3.3-4
		C81.7,27.8,83.2,26.8,84.6,26.9"/>
	<path class="st0" d="M170.8,35.5c-0.1,0.9,0.7,3.7-0.6,4.2c0.1,1.9-2.7,1.5-2.7,0.9c-1-0.2-2.2-0.2-3.1-0.5
		c-0.2,1.4,0.1,3.5,0.3,4.9c0.2,1.2,0,2.2,0.1,3.5c0.1,1.3-0.6,3.8,0,5c0.4,1.2-0.1,3.5,0,4.8c0.1,2.4,0.2,4.9,0,7.2
		c-0.7,7.9,0.3,15.8-0.1,23.7c-0.1,2-0.4,4.1-0.4,5.9c0,0.7-0.3,1.4-1.3,1.2c-2.8-0.5-4.5-2.7-5.3-5.5c1.2-0.1,2.7,2,3.7,2.6
		c1,0.6,1,0,1-1c0.1-2.2,0.1-4.4,0.2-6.6c0.2-6.9-0.2-13.8-0.1-20.6c0.2-7.1,0.6-14.5-0.1-21.6c-0.1-0.7-0.6-1.7-0.6-2.5
		c-0.5-1-1.4-1.3-0.9-2.8c0.5-1.4,1.4-0.2,2.1-0.4c0.6,1,1.5,0.7,2.6,0.4c0.7-0.2,2-0.4,2.6,0c0.7-0.8,0.6-2.4-0.3-2.9
		c-1.6-0.9-3.5-0.5-5.2,0c-2,0.5-4.1,0.9-5.9,1.8c-0.6,0.3-2.1,0.8-2.4,1.2c-0.4,0.5-1.9,0.4-2.3,1.3c-1,0.3-1.7,1.2-2.7,1.3
		c-0.9,0.2-1.5,1.4-2.4,1.5c-1.2,1.4-3.3,1.8-4.7,3.1c-1.7,1.5-3.8,3.2-5.4,4.9c-0.9,0.9-1.8,2-3,2.6c-1.7,0.8-2.1-0.6-3.3-0.8
		c-0.5-1.2-1.2-1.9-1.4-3.2c-0.3-1.7,0.2-2.4,1-3.9c0.3-0.5,2.3-1.6,2.8-1.5c1.4,0.2-0.8,1.4-1.1,1.9c-0.1,0.2-1.5,2.5-1.1,2.4
		c0,0.7,0.4,1.3,0.7,1.9c0.7,1.5,0.8,1.2,2.2,1.2c1.1-2.4,4.3-3.3,5.9-5.4c1.5-2,4.4-3.3,6.4-4.6c1.6-1,3.2-2,4.9-2.8
		c1.5-0.7,3.6-2.3,5.2-2.4c0.9-0.1,2.3-0.9,3.3-1.3c1.1-0.4,2.1-0.7,3.3-0.9c0.4-0.4,3.6-0.6,3.6-0.5c0.9-0.1,1.6,0.5,2.5,0.6
		C169.2,34,170.4,35.3,170.8,35.5"/>
	<path class="st0" d="M121.2,30c0,0.4,0.8,0.5,0.5,1.4c-0.8,0.4-2,0.7-2.9,0.7c-1.4,0.2-4.2,2.5-5.1,0.9
		C112.2,30.6,119.7,29.9,121.2,30"/>
	<path class="st0" d="M79.9,40.1c1,0.6,0.7,5.1,0.5,5.8c0,1.6-0.1,3.1,0,4.6c0,0.7,0.5,1.3,0.5,1.9c0.3,0.5,1.1,1,1.4,1.5
		c1.8-0.3,3.2-2.6,4.1-4c0.6-1,1.1-1.9,1.6-2.7c0.9-1.5,1,1.1,0.2,1.7c0,0.4-1.1,2.3-1.4,2.7c-0.9,1.2-1.7,2.1-2.7,3.1
		c-1.5,1.6-5.4,0.2-5.2-2.4c-0.3-2.4-0.8-4.5-0.6-7.2c0.3,0,0.3-2.3,0.3-2.7c-0.3-0.5-0.9,0.3-0.8,0.7c-0.8,0.3-1,2.1-2.1,2
		c0.5-0.8,0.3-1.9,0.9-2.7C78.1,42.4,78,39.5,79.9,40.1"/>
</g>
</svg>
